<svg version="1.2" xmlns="http://www.w3.org/2000/svg" viewBox="0 0 2000 2000" width="512" height="512">
	<defs>
		<linearGradient id="g1" x2="1" gradientUnits="userSpaceOnUse" gradientTransform="matrix(0,-1231,1687,0,967.5,1692)">
			<stop offset="0" stop-color="#003cff"/>
			<stop offset="1" stop-color="#ffffff"/>
		</linearGradient>
	</defs>
	<style>
		.s0 { fill: url(#g1) } 
		.s1 { fill: #000000 } 
	</style>
	<path id="AF" class="s0" aria-label="AF"  d="m124.2 1692l336.7-1230.8h233.3l345.4 1230.8h-194.4l-88.8-333.8h-356.5l-83.6 333.8zm322.3-519.2h261.2l-130.3-521h-3zm737 519.2l-2.9-1230.7h629.4l0.5 192.3h-453.4l0.9 370.9h396.8l0.5 192.3h-396.9l1.1 475.2z"/>
	<path id="AF" class="s1" aria-label="AF"  d="m156.2 1671l336.7-1230.8h233.3l345.4 1230.8h-194.4l-88.8-333.8h-356.5l-83.6 333.8zm322.3-519.2h261.2l-130.3-521h-3zm737 519.2l-2.9-1230.7h629.4l0.5 192.3h-453.4l0.9 370.9h396.8l0.5 192.3h-396.9l1.1 475.2z"/>
</svg>